<svg height="70pt" preserveAspectRatio="xMidYMid meet" viewBox="0 0 300 70" width="300pt" xmlns="http://www.w3.org/2000/svg"><g transform="matrix(.1 0 0 -.1 0 70)"><path fill="currentColor" d="m205 625c-17-16-25-35-25-60 0-32-3-35-28-35-54 0-64-68-19-117 22-25 9-31-24-10-18 10-23 9-40-12-28-34-25-84 9-123 24-28 28-40 24-75-3-35 0-44 21-57 34-23 72-7 94 39 9 19 20 35 25 35 9 0-8-48-23-67-7-8-7-19 2-34l12-23 13 27c14 26 42 47 63 47s11-18-13-24c-25-6-53-57-41-75 10-17 60-13 78 7 13 15 17 39 17 110 0 81-2 92-17 92-10 1-35 7-56 14-36 13-40 12-67-10-16-14-32-34-35-44-9-27-25-25-18 1 3 12 21 36 39 54 23 24 29 36 21 44-6 6-7 14-3 18s12 0 18-11c11-20 66-46 98-46 19 0 20 6 20 106v105l-22-15c-12-9-30-16-40-16-26 0-34-45-14-75 9-14 12-25 6-25-18 0-42 48-35 71 6 17 1 27-16 40-28 21-20 36 9 20 49-26 112 7 112 58 0 79-91 121-145 66z"/><path fill="currentColor" d="m399 621-29-29v-255c0-233 1-255 18-270 10-10 29-17 41-17 23 0 66 40 76 70 5 14 14 17 49 13 38-5 46-2 56 17 7 12 10 36 7 54-3 24 2 38 24 64 43 48 34 117-17 141-21 9-22 13-13 41 14 39-9 80-46 80-21 0-25 5-25 33-1 36-14 58-47 75-35 19-63 14-94-17zm100-107c2-2-12-4-32-4s-37-4-37-10c0-5-8-10-17-10-15 0-14 2 3 16 19 15 18 15-4 11-12-3-20-1-17 4 5 8 94 2 104-7zm101-39c0-8-3-16-7-18-5-3-8 5-8 18s3 21 8 18c4-2 7-10 7-18zm-33-7c-3-8-6-5-6 6-1 11 2 17 5 13 3-3 4-12 1-19zm-89-12c-2-1-10-7-20-14-11-9-18-10-23-2-4 6-1 9 7 8 7-2 12 2 11 9-2 7 4 10 13 6 8-3 14-6 12-7zm62-41c0-11-10-15-37-13-37 1-37 1-5 5 17 2 32 8 32 14 0 5 2 9 5 9s5-7 5-15zm-95-25c-3-5-14-10-23-9-14 0-13 2 3 9 27 11 27 11 20 0zm125-10c-13-9-13-10 0-10s13-1 0-10-13-11 0-20c13-8 12-10-2-10-13 0-18 8-18 30s5 30 18 30c14 0 15-2 2-10zm-75-60c19 0 24 6 28 33 4 31 4 31 5-5 2-37 1-38-33-38s-35 1-33 38c1 36 1 36 5 5 4-27 9-33 28-33zm-55 30c0-11-7-20-15-20s-15 5-15 10c0 6 6 10 13 10 8 0 7 4-3 10-13 8-12 10 3 10 10 0 17-8 17-20zm-3-36c-3-3-12-4-19-1-8 3-5 6 6 6 11 1 17-2 13-5zm140 0c-3-3-12-4-19-1-8 3-5 6 6 6 11 1 17-2 13-5zm-34-30c-3-9-8-11-12-6-4 6-27 12-51 15-42 3-41 4 12 5 49 2 56 0 51-14zm-79-30c13-5 14-9 5-20-6-8-19-14-28-14-13 1-12 3 4 12 19 11 19 11 0 19-11 4-15 8-8 8 6 1 19-2 27-5zm134-31c-2-10-10-18-18-18s-16 8-18 18c-2 12 3 17 18 17s20-5 18-17zm-128-35 35-3-42-5c-25-3-41-1-40 5 1 5-4 9-11 7-8-1-11 2-7 8 4 7 11 8 18 1 7-5 28-11 47-13z"/><path fill="currentColor" d="m570 220c0-5 5-10 10-10 6 0 10 5 10 10 0 6-4 10-10 10-5 0-10-4-10-10z"/><path fill="currentColor" d="m1500 389c0-50 5-99 10-110 13-24 70-27 70-4 0 8-7 15-15 15-12 0-15 17-15 95 0 95 0 95-25 95s-25-1-25-91z"/><path fill="currentColor" d="m2900 440c0-37-2-40-19-30-32 17-58 12-80-16-53-67 9-166 80-130 17 9 29 9 41 2 9-6 19-8 21-6 2 3 2 53-1 113-4 97-6 107-23 107-16 0-19-7-19-40zm-2-102c3-33 0-38-24-44-20-5-31-2-41 11-27 38-7 78 37 73 21-3 25-9 28-40z"/><path fill="currentColor" d="m836 374c-20-53-36-100-36-105s9-9 20-9c13 0 22 9 26 25 5 21 12 25 45 25s41-4 49-25c6-16 17-25 31-25 13 0 19 5 16 13-2 6-20 54-38 104-28 77-38 93-55 93-18 0-27-16-58-96zm83-26c1-5-10-8-24-8-28 0-31 15-13 56l12 26 12-33c7-19 13-37 13-41z"/><path fill="currentColor" d="m1020 365c0-98 1-105 20-105s20 7 20 105-1 105-20 105-20-7-20-105z"/><path fill="currentColor" d="m1177 413c-11-12-17-13-17-5 0 7-4 10-10 7-5-3-10-15-10-26s-4-18-9-14c-5 3-9-9-9-26 1-17 7-33 14-36 7-2 10-12 7-21-5-12-2-14 12-8 11 4 22 2 26-6 6-9 11-9 23 1 8 7 20 10 26 6 9-6 15 16 11 39-1 5 5 4 13-4 18-14 20-7 6 21-8 14-7 19 1 19s6 7-4 18c-10 10-14 22-10 25 3 4-5 7-19 7-15 0-28 5-30 10-2 6-11 3-21-7zm27-69c5-14 4-15-9-4-17 14-19 20-6 20 5 0 12-7 15-16z"/><path fill="currentColor" d="m1312 308c3-98 5-113 21-116 14-3 17 4 17 44 0 37 3 45 12 36 18-18 73-15 91 6 58 64-3 168-79 133-15-6-24-7-24-1s-9 10-20 10c-20 0-21-5-18-112zm116 36c4-36-18-59-47-49-23 7-35 37-26 66 5 16 14 19 38 17 28-3 32-7 35-34z"/><path fill="currentColor" d="m1617 409c-26-16-11-28 27-22 27 4 36 1 45-15 9-18 7-19-28-18-45 1-71-17-71-49 0-39 44-60 84-40 15 8 28 10 31 4 4-5 15-9 25-9 17 0 18 6 14 53-8 68-31 101-75 104-19 2-42-2-52-8zm83-86c-1-25-39-46-60-33-22 14-3 40 30 40 16 0 30-3 30-7z"/><path fill="currentColor" d="m1761 408c0-7 13-44 28-83 30-72 28-105-5-105-21 0-12-24 10-28 10-2 26 4 36 13 20 18 86 202 76 212-14 14-35-10-47-56-7-28-16-51-20-51-5 0-16 25-25 55-13 40-23 55-36 55-10 0-18-6-17-12z"/><path fill="currentColor" d="m1962 413c-7-3-19-18-28-35-17-33-12-72 13-100 18-21 73-24 91-6 9 9 12 8 12-4 0-28-30-50-59-44-45 11-54 11-58 0-4-12 39-34 68-34 32 0 76 27 83 52 3 13 6 58 6 101 0 70-2 77-20 77-11 0-20-5-20-10 0-7-6-7-19 0-21 11-47 12-69 3zm78-47c28-35-11-93-47-70-19 12-28 46-19 70 7 18 50 18 66 0z"/><path fill="currentColor" d="m2127 413c-4-3-7-39-7-80 0-71 1-73 25-73s25 3 25 55c0 50 2 55 25 61 16 4 25 13 25 25 0 23-17 24-42 2-17-15-18-15-18 0 0 17-21 23-33 10z"/><path fill="currentColor" d="m2257 400c-49-39-42-110 14-134 40-17 75-10 99 22 61 77-35 173-113 112zm83-36c10-11 11-23 4-42-17-49-74-36-74 18 0 14 3 30 7 33 12 13 50 7 63-9z"/><path fill="currentColor" d="m2413 404c-8-22 4-113 18-130s70-19 86-3c8 8 13 8 17 0 4-6 15-11 25-11 16 0 18 7 13 73-5 77-12 93-36 84-12-5-16-20-16-55 0-52-18-79-45-68-11 4-15 21-15 66 0 54-2 60-20 60-11 0-23-7-27-16z"/><path fill="currentColor" d="m2607 413c-4-3-7-39-7-80 0-71 1-73 25-73 22 0 24 4 27 58 3 53 5 57 28 57s25-4 28-57c3-50 6-58 23-58 18 0 20 6 17 71-4 85-17 101-70 81-21-8-34-9-36-2-4 11-25 13-35 3z"/></g></svg>